<?xml version="1.0" encoding="UTF-8" standalone="no"?>
<svg
   viewBox="0 0 47.999996 10.458014"
   height="10.458014"
   width="47.999996"
   xml:space="preserve"
   id="svg2"
   version="1.1"
   sodipodi:docname="icon2.svg"
   inkscape:version="1.1.2 (0a00cf5339, 2022-02-04)"
   xmlns:inkscape="http://www.inkscape.org/namespaces/inkscape"
   xmlns:sodipodi="http://sodipodi.sourceforge.net/DTD/sodipodi-0.dtd"
   xmlns="http://www.w3.org/2000/svg"
   xmlns:svg="http://www.w3.org/2000/svg"
   xmlns:rdf="http://www.w3.org/1999/02/22-rdf-syntax-ns#"
   xmlns:cc="http://creativecommons.org/ns#"
   xmlns:dc="http://purl.org/dc/elements/1.1/"><sodipodi:namedview
     id="namedview7212"
     pagecolor="#ffffff"
     bordercolor="#999999"
     borderopacity="1"
     inkscape:pageshadow="0"
     inkscape:pageopacity="0"
     inkscape:pagecheckerboard="0"
     showgrid="false"
     inkscape:zoom="8.1290133"
     inkscape:cx="23.004022"
     inkscape:cy="4.4900898"
     inkscape:window-width="1680"
     inkscape:window-height="946"
     inkscape:window-x="0"
     inkscape:window-y="32"
     inkscape:window-maximized="1"
     inkscape:current-layer="svg2"
     fit-margin-top="0"
     fit-margin-left="0"
     fit-margin-right="0"
     fit-margin-bottom="0" /><metadata
     id="metadata8"><rdf:RDF><cc:Work
         rdf:about=""><dc:format>image/svg+xml</dc:format><dc:type
           rdf:resource="http://purl.org/dc/dcmitype/StillImage" /></cc:Work></rdf:RDF></metadata><defs
     id="defs6" /><path
     id="path14422"
     style="fill:#000000;fill-opacity:1;fill-rule:nonzero;stroke:none;stroke-width:0.00509072"
     d="m 43.485203,10.224518 c 4.85e-4,-0.0022 -9.69e-4,2.53e-4 0,0 z m -1.392668,-0.08496 c -0.0087,-0.022 0.01251,0.0054 0,0 z M 38.576682,9.8706158 c 0.0058,0.0082 -0.01465,4.13e-4 0,0 z M 38.025259,0.71439182 c 0.03957,0.03778 -0.0482,0.01899 0,0 z m 4.957238,9.51654018 c -0.0048,1.85e-4 -5.34e-4,-4.59e-4 0,0 z M 31.51133,0.21041082 c -0.0019,0.01499 -0.01038,-0.0066 0,0 z M 6.21646,2.3952958 c -0.0513,-0.02477 0.02861,-0.04165 0,0 z m 41.386375,4.031749 c 1.182238,-0.804982 -0.653947,-1.858725 -0.6294,-2.054048 0.434982,-0.835964 -0.201216,-1.6568 0.03385,-2.564028 -0.370486,-1.45051798 -2.35662,-1.13353898 -3.504865,-0.98333598 -2.387811,-0.140227 -4.765409,-0.238009 -7.125007,-0.505406 -3.462298,-0.181346 -6.957319,-0.193762 -10.386409,-0.315707 -2.046663,-0.03614 -4.069487,0.159771 -6.117179,0.04654 -4.122005,0.281462 -8.221393,0.9132 -12.360002,1.05414898 -0.797631,0.07704 -3.196412,0.09553 -2.381808,1.088387 0.261736,-0.182861 1.296778,0.877272 -0.07526,0.580685 C 4.15756,2.8135308 2.9313779,3.0868698 3.366544,4.0814868 2.2312468,4.4361198 1.0627807,4.5744448 0,5.0177888 c 0.5647389,0.740529 0.9373004,-0.105663 1.5865818,0.149494 0.501446,-0.490734 1.2616502,0.808429 1.9995092,0.369924 1.561074,0.01789 3.119336,-0.27063 4.686123,-0.287534 -2.230888,0.280124 -4.504062,0.422174 -6.6973578,0.884867 -1.3391127,0.617456 1.0177696,1.755941 1.8414708,1.025468 -0.8471912,0.01843 -1.7433211,0.403594 -1.4683177,1.242742 0.8254175,0.596597 2.1305077,-0.336396 2.7310247,0.7118 0.671869,-0.222722 1.603593,-0.0021 1.846252,-0.394361 0.863591,-0.310757 1.536062,0.479381 1.833246,1.031262 1.136325,0.4043292 2.395763,0.5930302 3.621209,0.6170582 5.793964,-0.4700242 11.609837,-0.4907042 17.419658,-0.5302612 1.527565,-0.130967 3.151332,0.116883 4.72774,0.07308 2.9889,0.01436 5.978033,-0.0019 8.948118,0.3475132 0.160337,-0.4238012 1.6436,0.339184 2.658722,0.0731 1.641631,0.683301 2.572675,-1.6183632 0.772773,-1.9442332 -0.92316,0.0558 -1.800203,-0.746576 -0.258613,-0.588079 1.063731,0.194132 1.606532,-0.463841 1.354592,-1.37266" /></svg>
