<?xml version="1.0" encoding="UTF-8" standalone="no"?>
<svg
   id="svg1"
   sodipodi:docname="icon5.svg"
   viewBox="0 0 47.508835 48"
   sodipodi:version="0.32"
   _SVGFile__filename="oldscale/actions/edit_add.svg"
   version="1.0"
   y="0"
   x="0"
   inkscape:version="1.1.2 (0a00cf5339, 2022-02-04)"
   width="47.508835"
   height="48"
   xmlns:inkscape="http://www.inkscape.org/namespaces/inkscape"
   xmlns:sodipodi="http://sodipodi.sourceforge.net/DTD/sodipodi-0.dtd"
   xmlns="http://www.w3.org/2000/svg"
   xmlns:svg="http://www.w3.org/2000/svg"
   xmlns:rdf="http://www.w3.org/1999/02/22-rdf-syntax-ns#"
   xmlns:cc="http://creativecommons.org/ns#"
   xmlns:dc="http://purl.org/dc/elements/1.1/">
  <defs
     id="defs44118" />
  <sodipodi:namedview
     id="base"
     bordercolor="#666666"
     inkscape:pageshadow="2"
     inkscape:window-y="32"
     pagecolor="#ffffff"
     inkscape:window-height="946"
     inkscape:zoom="6.5046744"
     inkscape:window-x="0"
     borderopacity="1.0"
     inkscape:current-layer="svg1"
     inkscape:cx="13.067526"
     inkscape:cy="34.821112"
     inkscape:window-width="1680"
     inkscape:pageopacity="0.0"
     inkscape:pagecheckerboard="false"
     showgrid="false"
     fit-margin-top="0"
     fit-margin-left="0"
     fit-margin-right="0"
     fit-margin-bottom="0"
     inkscape:window-maximized="1" />
  <path
     id="path837"
     style="fill:#000000;stroke-width:0.893032"
     d="M 18.199592,18.445532 V 5.9440072 c 0,-1.7492672 0.478664,-3.1702563 1.435099,-4.2634143 C 20.591126,0.56019765 21.957462,0 23.733698,0 c 1.776237,0 3.142573,0.56019765 4.099007,1.6805929 0.98412,1.093158 1.476179,2.5141471 1.476179,4.2630566 V 18.445175 h 12.338101 c 1.803027,0 3.224731,0.49206 4.262432,1.476179 1.066278,0.956435 1.599416,2.309375 1.599416,4.057928 0,1.776236 -0.533138,3.155968 -1.599416,4.140086 -1.037701,0.984119 -2.459405,1.475285 -4.262431,1.475285 H 29.308884 v 12.46134 c 0,1.776237 -0.492059,3.211336 -1.476178,4.304404 C 26.849479,47.453466 25.482251,48 23.733698,48 21.985146,48 20.61881,47.453466 19.634691,46.360397 18.678256,45.267328 18.199592,43.83223 18.199592,42.055993 V 29.594653 H 5.8614907 c -1.7487308,0 -3.16972,-0.532245 -4.2628779,-1.598522 C 0.53287095,26.903062 0,25.56441 0,23.979282 0,22.230729 0.5192076,20.877789 1.5576227,19.921354 2.623454,18.937235 4.0581065,18.445175 5.86167,18.445175 h 12.338101 z" />
  <metadata
     id="metadata44115">
    <rdf:RDF>
      <cc:Work>
        <dc:format>image/svg+xml</dc:format>
        <dc:type
           rdf:resource="http://purl.org/dc/dcmitype/StillImage" />
        <cc:license
           rdf:resource="http://creativecommons.org/publicdomain/zero/1.0/" />
        <dc:publisher>
          <cc:Agent
             rdf:about="http://openclipart.org/">
            <dc:title>Openclipart</dc:title>
          </cc:Agent>
        </dc:publisher>
      </cc:Work>
      <cc:License
         rdf:about="http://creativecommons.org/licenses/publicdomain/">
        <cc:permits
           rdf:resource="http://creativecommons.org/ns#Reproduction" />
        <cc:permits
           rdf:resource="http://creativecommons.org/ns#Distribution" />
        <cc:permits
           rdf:resource="http://creativecommons.org/ns#DerivativeWorks" />
      </cc:License>
    </rdf:RDF>
  </metadata>
</svg>
