<?xml version="1.0" encoding="UTF-8" standalone="no"?>
<!-- Generator: Adobe Illustrator 17.0.0, SVG Export Plug-In . SVG Version: 6.00 Build 0)  -->

<svg
   id="Layer_1"
   enable-background="new 0 0 100 100"
   xml:space="preserve"
   viewBox="0 0 47.999199 48"
   version="1.1"
   y="0px"
   x="0px"
   width="47.999199"
   height="48"
   sodipodi:docname="icon4.svg"
   inkscape:version="1.1.2 (0a00cf5339, 2022-02-04)"
   xmlns:inkscape="http://www.inkscape.org/namespaces/inkscape"
   xmlns:sodipodi="http://sodipodi.sourceforge.net/DTD/sodipodi-0.dtd"
   xmlns="http://www.w3.org/2000/svg"
   xmlns:svg="http://www.w3.org/2000/svg"
   xmlns:rdf="http://www.w3.org/1999/02/22-rdf-syntax-ns#"
   xmlns:cc="http://creativecommons.org/ns#"
   xmlns:dc="http://purl.org/dc/elements/1.1/"><sodipodi:namedview
   id="namedview8"
   pagecolor="#ffffff"
   bordercolor="#999999"
   borderopacity="1"
   inkscape:pageshadow="0"
   inkscape:pageopacity="0"
   inkscape:pagecheckerboard="0"
   showgrid="false"
   fit-margin-top="0"
   fit-margin-left="0"
   fit-margin-right="0"
   fit-margin-bottom="0"
   inkscape:zoom="7.6787377"
   inkscape:cx="30.994678"
   inkscape:cy="37.18059"
   inkscape:window-width="1680"
   inkscape:window-height="946"
   inkscape:window-x="0"
   inkscape:window-y="32"
   inkscape:window-maximized="1"
   inkscape:current-layer="Layer_1" /><defs
   id="defs43949" />
<g
   id="g43942"
   transform="matrix(0.53332741,0,0,0.53332741,-2.6669037,-2.6663704)">
	<g
   id="g43940">
		<path
   d="m 91.645,8.355 c -4.474,-4.474 -11.727,-4.474 -16.2,0 l -13.5,13.501 -3.727,-3.727 c -1.959,-1.959 -5.134,-1.959 -7.093,0 -1.959,1.959 -1.959,5.134 0,7.093 l 3.727,3.727 -41.51,41.508 c -2.039,2.039 -3.149,4.656 -3.329,7.324 -0.073,1.087 -0.347,3.105 -0.675,5.292 -0.053,0.359 -0.212,0.706 -0.487,0.983 l -3.105,3.106 c -0.994,0.994 -0.994,2.606 0,3.6 l 3.493,3.493 c 0.994,0.994 2.606,0.994 3.6,0 l 3.106,-3.105 c 0.277,-0.275 0.622,-0.433 0.981,-0.486 2.187,-0.329 4.205,-0.602 5.293,-0.675 2.668,-0.18 5.285,-1.29 7.325,-3.33 l 41.508,-41.508 3.727,3.727 c 1.959,1.959 5.134,1.959 7.093,0 1.959,-1.959 1.959,-5.134 0,-7.093 l -12.365,-12.366 9.697,7.577 12.44,-12.441 c 4.475,-4.473 4.474,-11.726 10e-4,-16.2 z m -26.594,34.394 -20.53,20.53 c -0.994,0.994 -2.606,0.994 -3.6,0 l -3.27,-3.27 c -0.994,-0.993 -2.605,-0.993 -3.599,10e-4 l -0.616,0.616 -0.002,-0.002 -14.728,14.727 c -0.337,0.337 -0.819,0.401 -1.076,0.143 -0.257,-0.258 -0.194,-0.74 0.143,-1.076 l 23.841,-23.841 0.004,0.004 15.633,-15.633 c 0.994,-0.994 2.606,-0.994 3.6,0 l 4.2,4.201 c 0.994,0.994 0.994,2.606 0,3.6 z"
   id="path43938" />
	</g>
</g>
<metadata
   id="metadata43944"><rdf:RDF><cc:Work><dc:format>image/svg+xml</dc:format><dc:type
         rdf:resource="http://purl.org/dc/dcmitype/StillImage" /><cc:license
         rdf:resource="http://creativecommons.org/publicdomain/zero/1.0/" /><dc:publisher><cc:Agent
           rdf:about="http://openclipart.org/"><dc:title>Openclipart</dc:title></cc:Agent></dc:publisher></cc:Work><cc:License
       rdf:about="http://creativecommons.org/licenses/publicdomain/"><cc:permits
         rdf:resource="http://creativecommons.org/ns#Reproduction" /><cc:permits
         rdf:resource="http://creativecommons.org/ns#Distribution" /><cc:permits
         rdf:resource="http://creativecommons.org/ns#DerivativeWorks" /></cc:License></rdf:RDF></metadata></svg>
