<?xml version="1.0" encoding="UTF-8" standalone="no"?>
<svg
   viewBox="0 0 22.265034 47.999984"
   version="1.0"
   id="svg87"
   width="22.265034"
   height="47.999985"
   sodipodi:docname="icon1.svg"
   inkscape:version="1.1.2 (0a00cf5339, 2022-02-04)"
   xmlns:inkscape="http://www.inkscape.org/namespaces/inkscape"
   xmlns:sodipodi="http://sodipodi.sourceforge.net/DTD/sodipodi-0.dtd"
   xmlns="http://www.w3.org/2000/svg"
   xmlns:svg="http://www.w3.org/2000/svg"
   xmlns:rdf="http://www.w3.org/1999/02/22-rdf-syntax-ns#"
   xmlns:cc="http://creativecommons.org/ns#"
   xmlns:dc="http://purl.org/dc/elements/1.1/">
  <sodipodi:namedview
     id="namedview7"
     pagecolor="#ffffff"
     bordercolor="#999999"
     borderopacity="1"
     inkscape:pageshadow="0"
     inkscape:pageopacity="0"
     inkscape:pagecheckerboard="0"
     showgrid="false"
     fit-margin-top="0"
     fit-margin-left="0"
     fit-margin-right="0"
     fit-margin-bottom="0"
     inkscape:zoom="10.859375"
     inkscape:cx="14.825899"
     inkscape:cy="32"
     inkscape:window-width="1680"
     inkscape:window-height="946"
     inkscape:window-x="0"
     inkscape:window-y="32"
     inkscape:window-maximized="1"
     inkscape:current-layer="svg87" />
  <defs
     id="defs91" />
  <g
     transform="matrix(0.00828929,0,0,-0.00828929,-13.735354,48.870362)"
     id="g83">
    <path
       d="m 3065,5891 c -157,-28 -291,-204 -345,-451 -12,-56 -9,-322 5,-387 5,-24 3,-34 -6,-36 -450,-119 -764,-435 -845,-852 -8,-39 -14,-132 -14,-210 0,-330 96,-578 303,-788 128,-130 285,-231 642,-412 262,-133 425,-240 532,-348 73,-74 133,-170 159,-257 17,-56 18,-189 2,-244 -45,-152 -212,-240 -483,-253 -229,-12 -504,71 -735,221 -107,70 -126,76 -236,76 -95,0 -118,-6 -199,-47 -52,-27 -125,-105 -157,-168 -28,-53 -31,-70 -31,-145 0,-76 3,-92 34,-155 42,-86 148,-201 227,-246 167,-95 348,-172 467,-199 145,-33 184,-42 216,-47 l 35,-5 -13,-62 c -34,-163 6,-423 89,-581 31,-60 89,-123 149,-161 38,-25 54,-29 119,-29 64,0 82,4 122,28 25,15 65,48 88,73 41,45 114,183 123,234 3,14 11,45 18,70 14,51 19,324 6,406 l -7,51 47,13 c 71,19 192,60 240,81 24,11 53,24 65,29 13,6 32,16 43,22 151,95 196,129 279,212 53,53 108,115 123,138 15,24 30,45 33,48 16,15 71,136 94,205 40,116 56,224 56,364 0,338 -113,624 -335,846 -81,81 -167,150 -240,191 -16,9 -32,20 -35,23 -8,10 -63,41 -92,52 -16,6 -28,15 -28,20 0,5 -4,9 -9,9 -15,0 -422,214 -497,261 -241,152 -397,323 -412,454 -13,120 48,265 143,337 85,65 157,83 320,81 122,-1 155,-5 258,-32 132,-35 271,-96 379,-168 99,-65 119,-71 227,-72 84,-1 99,2 156,29 74,35 130,94 170,178 24,48 28,70 28,142 0,75 -3,92 -31,145 -75,150 -282,308 -493,378 -108,36 -176,55 -246,68 -35,6 -63,14 -63,18 0,3 5,22 10,41 6,19 11,101 11,181 0,171 -18,264 -77,383 -88,181 -236,274 -389,247 z"
       id="path81" />
  </g>
  <metadata
     id="metadata85">
    <rdf:RDF>
      <cc:Work>
        <dc:format>image/svg+xml</dc:format>
        <dc:type
           rdf:resource="http://purl.org/dc/dcmitype/StillImage" />
        <cc:license
           rdf:resource="http://creativecommons.org/publicdomain/zero/1.0/" />
        <dc:publisher>
          <cc:Agent
             rdf:about="http://openclipart.org/">
            <dc:title>Openclipart</dc:title>
          </cc:Agent>
        </dc:publisher>
        <dc:date>2012-02-06T15:16:50</dc:date>
        <dc:description>A Dollar Sign</dc:description>
        <dc:source>http://openclipart.org/detail/167786/money-11-by-dripsandcastle</dc:source>
        <dc:creator>
          <cc:Agent>
            <dc:title>dripsandcastle</dc:title>
          </cc:Agent>
        </dc:creator>
        <dc:subject>
          <rdf:Bag>
            <rdf:li>clip art</rdf:li>
            <rdf:li>clipart</rdf:li>
            <rdf:li>dollar</rdf:li>
            <rdf:li>dollar sign</rdf:li>
            <rdf:li>money</rdf:li>
          </rdf:Bag>
        </dc:subject>
      </cc:Work>
      <cc:License
         rdf:about="http://creativecommons.org/licenses/publicdomain/">
        <cc:permits
           rdf:resource="http://creativecommons.org/ns#Reproduction" />
        <cc:permits
           rdf:resource="http://creativecommons.org/ns#Distribution" />
        <cc:permits
           rdf:resource="http://creativecommons.org/ns#DerivativeWorks" />
      </cc:License>
    </rdf:RDF>
  </metadata>
</svg>
